<?xml version="1.0" encoding="UTF-8"?>
<svg xmlns="http://www.w3.org/2000/svg" version="1.1" viewBox="0 0 241.89 248.86">
  <defs>
    <style>
      .cls-1 {
        fill: #010101;
        stroke-width: 0px;
      }
    </style>
  </defs>
  <!-- Generator: Adobe Illustrator 28.6.0, SVG Export Plug-In . SVG Version: 1.0.2 Build 54)  -->
  <g>
    <g id="Layer_1">
      <g>
        <path class="cls-1" d="M139.17,200.76c-.3.87-.83,1.19-1.28,1.55-3.43,2.8-6.87,5.58-10.29,8.38-.87.71-1.8,1.11-2.94,1.1-3.65-.02-7.3-.01-10.95.03-.88.01-1.28-.14-1.26-1.16.07-2.93.05-5.86,0-8.8-.01-.84.21-1.14,1.09-1.14,8.49.03,16.98.02,25.63.02Z"/>
        <path class="cls-1" d="M122.21,238.58c-.09-.29.12-.44.3-.58,4.24-3.29,8.49-6.58,12.73-9.86.59-.45,1.29-.59,2.02-.6,3.46-.02,6.93-.02,10.39-.08.83-.01,1.17.18,1.15,1.08-.05,3.1-.03,6.21,0,9.31,0,.68-.2.94-.91.94-8.53-.04-17.06-.05-25.6-.07-.03,0-.06-.1-.08-.15Z"/>
        <path class="cls-1" d="M228.98,72.1c-4.22-18.14-14-32.7-29.54-43.18-10.64-7.17-22.43-11.62-34.85-14.53-14.53-3.4-29.31-4.33-46.44-4.38-5.83-.07-13.89.28-21.93,1.17-13.12,1.46-25.93,4.22-38.16,9.34-23.11,9.69-38.27,26.4-44.56,50.81-4.53,17.58-4.54,35.31-.8,52.99,5.52,26.07,20.51,44.45,45.48,54.22,19.12,7.48,39.05,11.05,59.56,11.36,20.74.32,41-2.87,60.73-9.21,25.96-8.33,42.69-25.68,49.98-51.97,5.21-18.8,4.91-37.76.53-56.63ZM47.79,56.52c5.47-10.02,13.94-16.7,23.97-21.63,8.68-4.27,17.97-6.41,27.52-7.52,11.19-1.3,22.41-1.97,33.67-1.13,13.24.99,26.22,3.23,38.34,8.98,9.07,4.31,16.31,10.77,21.83,19.16.23.35.44.71.69,1.1-.08.66-.73.67-1.16.89-8.3,4.37-16.86,8.18-25.47,11.87-8.35,3.58-16.67,7.2-23.96,12.79-8.74,6.71-15.52,15-20.46,24.83q-1.19,2.37-2.88.28c-4.74-5.86-9.24-11.91-14.43-17.4-7.13-7.54-15.95-12.5-25.37-16.49-10.55-4.48-21.2-8.7-31.56-13.61-1.22-.58-1.39-.93-.74-2.13ZM199.97,131.24c-6.97,19.89-20.89,32.4-41.14,37.6-25.88,6.64-51.9,6.87-77.59-.79-23.99-7.16-37.69-23.72-41.7-48.35-1.64-10.08-1.4-20.27-1.41-30.44,0-1.41.54-2.81.68-4.24.12-1.24.5-1.43,1.69-1,6.23,2.24,12.52,4.32,18.75,6.58,7.4,2.69,15.12,4.41,22.44,7.38,17.32,7.03,29.75,19.15,37.61,36.05.36.78.53,2.03,1.4,2.08.68.03,1.01-1.19,1.44-1.88,3.41-5.4,6.72-10.87,10.31-16.16,6.93-10.2,16.31-17.19,27.83-21.35,12.9-4.67,25.85-9.24,38.78-13.83,1.45-.52,2.97-.85,4.45-1.28.16,1.52.38,3.05.47,4.57.22,3.7.38,7.41.57,11.11.23,11.55-.7,22.95-4.55,33.94Z"/>
        <path class="cls-1" d="M232.76,212.18c-.2-6.54-5.06-11.24-11.58-11.38-8.37-.19-16.76-.06-25.13-.1-.86,0-1.11.25-1.1,1.11.05,2.51.1,5.03-.01,7.54-.06,1.37.28,1.82,1.74,1.8,6.34-.09,12.69-.03,19.03-.04,1.22,0,2.2.31,2.14,1.76-.05,1.36-1.04,1.57-2.15,1.57-2.51,0-5.03.13-7.54,0-5.35-.29-10.38.32-14.39,4.7-.19-2.29-.29-4.29-.52-6.29-.72-6.15-4.25-10.3-9.82-11.64-1.58-.38-3.18-.51-4.81-.51-10.23.02-20.47.04-30.7.01-1.89,0-3.47.57-4.94,1.74-6.87,5.49-13.78,10.93-20.67,16.38-3.92,3.1-7.85,6.2-12.1,9.56,0-2.85,0-5.24,0-7.63,0-2.45.04-4.91-.05-7.36-.28-7.54-4.94-12.54-12.29-12.73-8.31-.21-16.64-.04-24.95-.07-.89,0-1.1.29-1.09,1.13.05,2.57.1,5.15-.02,7.72-.06,1.36.35,1.68,1.68,1.67,6.82-.07,13.64-.04,20.47-.02,1.22,0,2.77-.25,2.8,1.64.03,2.03-1.6,1.71-2.88,1.72-3.23.03-6.47.16-9.69-.02-5.54-.31-10.31,1.01-13.75,5.68-.06.07-.21.08-.62.21,0-1.97-.17-3.87.03-5.73.83-7.67-4.85-14.18-12.97-14.09-14.42.16-28.84.08-43.26,0-1.21,0-1.48.37-1.47,1.52.04,11.73.05,23.46,0,35.19,0,1.28.45,1.46,1.53,1.44,3.23-.06,6.46-.09,9.69,0,1.37.04,1.8-.3,1.78-1.75-.08-7.72-.01-15.44-.06-23.16,0-1.17.28-1.55,1.48-1.5,2.09.1,4.2.14,6.28,0,1.56-.11,1.83.47,1.82,1.9-.07,7.6.01,15.2-.07,22.8-.02,1.49.45,1.79,1.81,1.75,3.05-.09,6.1-.08,9.15,0,1.17.03,1.67-.18,1.66-1.53-.07-6.82-.05-13.64-.02-20.47,0-1.48-.68-3.49.3-4.28.92-.74,2.86-.29,4.34-.27,3.94.04,4.79.93,4.8,4.93.02,6.64.06,13.29-.01,19.93-.02,1.38.38,1.71,1.7,1.67,3.29-.09,6.58-.09,9.87,0,1.29.03,1.84-.22,1.74-1.64-.09-1.3-.22-2.64.14-4.05,5.56,5.54,6.4,5.87,14.33,5.86,9.28-.02,18.55-.07,27.83,0,2.41.02,4.38-.68,6.26-2.17,9.79-7.78,19.62-15.49,29.44-23.22,1.1-.87,2.22-1.71,3.57-2.74,0,.91,0,1.48,0,2.06,0,8.02.04,16.04-.04,24.06-.02,1.55.36,2.05,1.98,2.04,9.1-.08,18.19-.09,27.29-.05,4.64.02,7.95-2.15,10.36-5.95.45-.71.85-1.44,1.4-2.36,2.18,5.17,5.86,8.14,11.2,8.26,9.39.21,18.79.06,28.18.09.78,0,1.02-.24,1.01-1.01-.05-8.56.12-17.12-.14-25.67ZM95.92,228.5c-1.85-.06-3.71-.02-5.56-.02v-.02c-1.79,0-3.59,0-5.38,0-1.49,0-2.43-.67-2.53-2.18-.1-1.54.66-2.62,2.25-2.66,3.82-.1,7.65-.07,11.47-.11.76,0,.87.38.85,1.01-.03.96-.06,1.92,0,2.87.06.87-.25,1.12-1.11,1.1ZM179.89,223.76c-.19,2.23-1.51,3.51-3.74,3.56-3.47.08-6.94,0-10.41.07-.96.02-1.05-.41-1.04-1.18.04-2.15.01-4.31.01-6.46,0-2.09.02-4.19-.01-6.28-.01-.81.04-1.31,1.12-1.28,3.59.09,7.18,0,10.77.07,2.03.04,3.2,1.21,3.33,3.25.18,2.75.19,5.51-.04,8.25ZM216.43,228.53c-1.02,0-2.03,0-3.05,0v-.05c-1.79,0-3.58,0-5.38,0-1.61,0-2.46-.84-2.5-2.41-.04-1.58.82-2.47,2.41-2.49,3.7-.04,7.41-.03,11.11-.07.75,0,1,.24,1.05,1.03.28,3.99.31,3.99-3.65,3.98Z"/>
      </g>
    </g>
  </g>
</svg>